<svg xmlns="http://www.w3.org/2000/svg" viewBox="0 0 32 32"><path d="M16,.4a16,16,0,0,0-5.06,31.18c.8.15,1.1-.35,1.1-.77s0-1.64,0-3c-4.45,1-5.39-1.89-5.39-1.89A4.2,4.2,0,0,0,4.85,23.6c-1.46-1,.11-1,.11-1a3.36,3.36,0,0,1,2.45,1.65,3.41,3.41,0,0,0,4.65,1.33,3.42,3.42,0,0,1,1-2.14c-3.55-.41-7.29-1.78-7.29-7.91a6.23,6.23,0,0,1,1.65-4.3A5.75,5.75,0,0,1,7.59,7S8.94,6.6,12,8.67a15.12,15.12,0,0,1,8,0C23.06,6.6,24.4,7,24.4,7a5.72,5.72,0,0,1,.16,4.23,6.19,6.19,0,0,1,1.65,4.3c0,6.14-3.75,7.5-7.31,7.89a3.81,3.81,0,0,1,1.09,3c0,2.14,0,3.86,0,4.39s.29.92,1.1.77A16,16,0,0,0,16,.4Z" style="fill:#171819;fill-rule:evenodd"/><path d="M6.06,23.37a.2.2,0,0,1-.27.05c-.12-.06-.19-.16-.15-.24s.16-.11.28-.05.18.16.14.24Zm-.2-.15" style="fill:#171819"/><path d="M6.71,24.09A.25.25,0,0,1,6.38,24a.27.27,0,0,1,0-.34c.08-.07.23,0,.33.08s.13.26,0,.33Zm-.15-.16" style="fill:#171819"/><path d="M7.34,25c-.1.07-.26,0-.36-.14a.27.27,0,0,1,0-.38c.1-.07.26,0,.36.14a.27.27,0,0,1,0,.38Zm0,0" style="fill:#171819"/><path d="M8.2,25.9c-.08.1-.27.07-.41-.06s-.18-.31-.09-.41a.32.32,0,0,1,.42.06c.13.13.18.32.08.41Zm0,0" style="fill:#171819"/><path d="M9.4,26.42c0,.12-.22.18-.4.13s-.3-.2-.27-.33a.3.3,0,0,1,.4-.13c.18.06.3.2.27.33Zm0,0" style="fill:#171819"/><path d="M10.71,26.51c0,.14-.15.25-.34.25s-.35-.1-.35-.23.15-.25.34-.25.35.1.35.23Zm0,0" style="fill:#171819"/><path d="M11.92,26.31c0,.13-.11.26-.29.29a.31.31,0,0,1-.39-.17c0-.13.12-.26.3-.3s.36.05.38.18Zm0,0" style="fill:#171819"/></svg>